<?xml version="1.0" standalone="no"?><!DOCTYPE svg PUBLIC "-//W3C//DTD SVG 1.1//EN" "http://www.w3.org/Graphics/SVG/1.1/DTD/svg11.dtd"><svg t="1566740028205" class="icon" viewBox="0 0 1024 1024" version="1.1" xmlns="http://www.w3.org/2000/svg" p-id="2256" xmlns:xlink="http://www.w3.org/1999/xlink" width="16" height="16"><defs><style type="text/css"></style></defs><path d="M5.12 512c0 280.064 226.816 506.88 506.88 506.88s506.88-226.816 506.88-506.88-226.816-506.88-506.88-506.88S5.12 231.936 5.12 512z" fill="#2DAAE1" p-id="2257"></path><path d="M433.664 773.632c3.072-5.12 6.656-9.728 6.656-11.264v-66.56c-100.864 20.992-121.856-41.984-121.856-41.984-16.384-41.984-40.448-53.76-40.448-53.76-32.256-22.528 3.072-22.528 3.072-22.528 35.84 3.072 55.296 37.376 55.296 37.376 32.256 55.296 84.48 38.912 105.472 30.72 3.072-22.528 12.8-38.912 22.528-48.64-80.896-9.728-165.376-40.448-165.376-178.688 0-38.912 14.848-71.168 37.376-97.28-3.072-9.728-16.384-45.568 3.072-95.744 0 0 30.72-9.728 98.816 37.376 29.184-8.192 59.904-11.264 90.624-11.264s61.44 5.12 90.624 11.264c69.632-47.104 98.816-37.376 98.816-37.376 19.456 50.176 8.192 86.016 3.072 95.744 22.528 26.112 37.376 56.832 37.376 97.28 0 137.728-84.48 168.96-165.376 178.688 12.8 11.264 24.576 32.256 24.576 66.56v98.816c0 3.072 1.536 6.656 6.656 11.264 5.12 6.656 3.072 17.92-3.072 22.528-3.072 1.536-6.656 3.072-9.728 3.072H446.464c-9.728 0-16.384-6.656-16.384-16.384 0.512-4.096 2.048-7.68 3.584-9.216z" fill="#FFFFFF" p-id="2258"></path></svg>