<?xml version="1.0" standalone="no"?><!DOCTYPE svg PUBLIC "-//W3C//DTD SVG 1.1//EN" "http://www.w3.org/Graphics/SVG/1.1/DTD/svg11.dtd"><svg t="1566562528643" class="icon" viewBox="0 0 1024 1024" version="1.1" xmlns="http://www.w3.org/2000/svg" p-id="2317" xmlns:xlink="http://www.w3.org/1999/xlink" width="200" height="200"><defs><style type="text/css"></style></defs><path d="M254.592322 736.22436h-4.767994c-21.951973-2.623997-41.951948 13.823983-44.479945 36.863954 2.527997 22.687972 22.047972 39.071951 43.839946 36.799954v0.191999h4.639994a39.039951 39.039951 0 0 0 29.663963-8.863989c8.415989-6.879991 13.791983-17.055979 14.911981-28.127964-2.527997-22.687972-22.047972-39.103951-43.807945-36.863954zM774.751672 736.22436H421.920113c-21.919973-2.623997-41.951948 13.823983-44.447945 36.863954 2.495997 22.687972 22.047972 39.071951 43.839945 36.799954v0.191999H774.079672a39.039951 39.039951 0 0 0 29.631963-8.863989c8.35199-6.879991 13.727983-17.055979 14.943982-28.127964-2.559997-22.687972-22.047972-39.103951-43.903945-36.863954zM254.592322 492.128665h-4.767994c-21.951973-2.623997-41.951948 13.887983-44.479945 36.863954 2.527997 22.751972 22.047972 39.039951 43.839946 36.799954v0.255999h4.639994c10.623987 1.247998 21.311973-1.887998 29.663963-8.831989 8.415989-6.943991 13.791983-17.151979 14.911981-28.191964-2.527997-22.687972-22.047972-39.135951-43.807945-36.895954zM774.751672 492.128665H421.920113c-21.919973-2.623997-41.951948 13.887983-44.447945 36.863954 2.495997 22.751972 22.047972 39.039951 43.839945 36.799954v0.255999H774.079672c10.623987 1.247998 21.215973-1.887998 29.631963-8.831989 8.35199-6.943991 13.727983-17.151979 14.943982-28.191964-2.559997-22.687972-22.047972-39.135951-43.903945-36.895954zM254.592322 248.09697h-4.767994c-21.951973-2.623997-41.951948 13.855983-44.479945 36.863954 2.527997 22.719972 22.047972 39.071951 43.839946 36.831954v0.192h4.639994a39.039951 39.039951 0 0 0 29.663963-8.863989 41.919948 41.919948 0 0 0 14.911981-28.159965c-2.527997-22.687972-22.047972-39.071951-43.807945-36.863954zM421.312113 321.824878v0.191999h128.767839a39.039951 39.039951 0 0 0 29.631963-8.863988c8.35199-6.911991 13.727983-17.087979 14.943982-28.159965-2.559997-22.687972-22.047972-39.103951-43.903945-36.863954h-128.831839c-21.919973-2.623997-41.951948 13.855983-44.447945 36.863954 2.495997 22.719972 22.047972 39.039951 43.839945 36.831954z" p-id="2318" fill="#0B70BD"></path><path d="M975.423421 310.752892c0.128-17.951978-5.919993-31.135961-18.335977-43.551946A55850.810186 55850.810186 0 0 1 706.975756 17.089259c-12.031985-12.127985-25.087969-17.183979-42.175947-17.087979C526.463982 0.513279 292.160275 0.32128 153.856448 0.32128 90.048527 0.417279 48.608579 41.537228 48.608579 105.025149v369.439538c0 123.935845-0.096 322.751597 0 446.431442 0 60.799924 42.047947 103.007871 102.911872 103.007871 208.15974 0.128 512.31936 0.128 720.479099 0 60.927924 0 103.007871-41.759948 103.135871-102.751871 0.128-178.367777-0.128-431.87146 0.288-610.399237z m-277.695653-190.559762c52.063935 51.551936 105.311868 104.28787 159.007801 157.343803-41.343948 0-84.479894 1.151999-127.359841-0.543999-18.175977-0.735999-30.719962-14.207982-31.231961-32.57596-1.311998-42.463947-0.415999-85.087894-0.415999-124.223844z m205.055744 798.271002c0 25.375968-8.671989 32.575959-38.047953 32.575959-143.74382 0.128-383.359521 0-526.975341 0-58.015927 0-115.967855 0.128-173.983783 0-36.703954 0-41.535948-4.735994-41.535948-40.671949v-436.799454c0-119.96785 0-239.8717 0.096-359.64755 0-34.815956 5.695993-40.799949 39.647951-40.799949 124.543844 0 345.055569 0.415999 469.599413-0.416 17.695978-0.096 22.239972 5.055994 21.823972 22.239972-1.151999 44.799944-0.671999 89.631888-0.319999 134.463832 0.447999 60.543924 32.15996 92.799884 92.479884 93.407883 46.815941 0.543999 93.535883 0.415999 140.351825-0.095999 12.575984-0.096 17.183979 3.487996 17.183978 16.767979-0.32 167.90379-0.096 410.975486-0.319999 578.975276z" p-id="2319" fill="#0B70BD"></path></svg>