<?xml version="1.0" standalone="no"?><!DOCTYPE svg PUBLIC "-//W3C//DTD SVG 1.1//EN" "http://www.w3.org/Graphics/SVG/1.1/DTD/svg11.dtd"><svg t="1566548401681" class="icon" viewBox="0 0 1024 1024" version="1.1" xmlns="http://www.w3.org/2000/svg" p-id="6100" xmlns:xlink="http://www.w3.org/1999/xlink" width="200" height="200"><defs><style type="text/css"></style></defs><path d="M512 962C263.4875 962 62 760.540625 62 512 62 263.4875 263.4875 62 512 62s450 201.4875 450 450c0 248.540625-201.4875 450-450 450z m0-409.78125l-196.846875-116.803125v183.290625c0 18.73125 16.509375 33.91875 36.871875 33.91875h319.95c20.3625 0 36.9-15.1875 36.9-33.91875v-183.290625l-196.875 116.803125zM352.025 371.375c-19.040625 0-34.70625 13.275-36.646875 30.2625a26.015625 26.015625 0 0 0-0.253125 3.65625l196.875 116.746875 196.846875-116.746875a28.125 28.125 0 0 0-0.225-3.796875C706.56875 384.59375 690.93125 371.375 671.975 371.375H352.025z" fill="#0B70BD" p-id="6101"></path></svg>