<?xml version="1.0" standalone="no"?><!DOCTYPE svg PUBLIC "-//W3C//DTD SVG 1.1//EN" "http://www.w3.org/Graphics/SVG/1.1/DTD/svg11.dtd"><svg t="1566547028609" class="icon" viewBox="0 0 1024 1024" version="1.1" xmlns="http://www.w3.org/2000/svg" p-id="4506" xmlns:xlink="http://www.w3.org/1999/xlink" width="200" height="200"><defs><style type="text/css"></style></defs><path d="M70.151221 467.092207c-7.306406 103.011118 3.934612 181.284833 55.231929 271.143397 13.497409 22.210861 87.636966 137.544633 123.228579 101.065813 15.542998-24.928762-134.708028-108.565625-139.92689-292.690132 6.265704-115.647927 18.152429-201.636347 112.64657-317.888024 156.326395-159.591765 419.126776-161.103188 576.757886-3.479241 156.278299 156.285462 156.278299 417.010579 0 573.296041-152.683425 152.679331-390.806777 129.412418-390.806777 81.386612 0-34.707476 15.541975-60.207243 27.7756-83.330894 40.050158 9.333576 80.196507 17.47193 110.281709-28.599362 99.714026-152.699798-82.505086-161.327292-82.505086-200.550619 0-80.362282 37.882795-163.027004 97.219205-201.378473 38.73214 7.855922 116.697839 74.483388 166.703743-6.898107 32.783661-53.367465 49.074695-114.094548-20.502963-153.196101-114.122177-56.414871-167.698396-21.00643-238.315734 54.094012-50.726312 50.250474-132.512013 197.143009-143.984299 335.154269-5.218862 76.106352-0.216941 134.108371 69.436442 180.542936-7.937786 34.081213-27.7756 55.257511-27.7756 97.217159 0 45.195342 41.999556 74.299193 103.682407 83.331917 31.005155 3.53757 61.207014 3.333932 90.137926 0 123.833353-15.397688 275.216155-90.980107 352.523869-245.280356 24.704658-49.311079 39.125089-101.817943 43.903929-155.002236l0-80.014358c-6.994298-78.679967-34.416857-156.081825-80.310094-224.073358C815.257304 162.602332 679.687652 71.115688 549.982568 65.906036c-116.494201-5.728468-240.822834 17.663288-353.843934 130.681318C147.37707 247.442602 94.162078 315.805596 70.151221 467.092207L70.151221 467.092207zM610.672812 205.860555c55.32812 3.65525 98.652857 32.360012 111.693872 53.237505 13.050224 20.878516-12.463869 101.46081-50.623981 108.045785-33.797757 5.834892-82.418105-36.59343-117.750821-29.40368C493.308801 350.092493 426.923858 520.66638 436.804902 585.630974c5.260817 34.612309 111.960954 43.624567 105.490589 116.601648-1.937119 21.934568-24.793686 72.552409-61.58666 69.939909-36.795021-2.610454-58.032718-15.885805-88.73088-40.71019C277.054525 638.528742 465.499431 190.405561 610.672812 205.860555z" p-id="4507" fill="#0B70BD"></path></svg>