<?xml version="1.0" standalone="no"?><!DOCTYPE svg PUBLIC "-//W3C//DTD SVG 1.1//EN" "http://www.w3.org/Graphics/SVG/1.1/DTD/svg11.dtd"><svg t="1566613272246" class="icon" viewBox="0 0 1024 1024" version="1.1" xmlns="http://www.w3.org/2000/svg" p-id="2138" xmlns:xlink="http://www.w3.org/1999/xlink" width="200" height="200"><defs><style type="text/css"></style></defs><path d="M512 192c-187.2 0-332.96 122.08-512 319.84 154.08 169.12 283.52 320 512 320s396.32-191.04 512-316.48C905.6 368.48 737.76 192 512 192z m0 533.28c-112.96 0-204.8-95.68-204.8-213.28 0-117.6 91.84-213.28 204.8-213.28S716.8 394.4 716.8 512c0 117.6-91.84 213.28-204.8 213.28z m0-356.16c-75.68 0-137.12 64.16-137.12 142.88 0 78.72 61.6 142.88 137.12 142.88 75.68 0 137.12-64.16 137.12-142.88 0-78.88-61.44-142.88-137.12-142.88z" p-id="2139" fill="#0B70BD"></path></svg>