<?xml version="1.0" standalone="no"?><!DOCTYPE svg PUBLIC "-//W3C//DTD SVG 1.1//EN" "http://www.w3.org/Graphics/SVG/1.1/DTD/svg11.dtd"><svg t="1566548287274" class="icon" viewBox="0 0 1024 1024" version="1.1" xmlns="http://www.w3.org/2000/svg" p-id="5347" xmlns:xlink="http://www.w3.org/1999/xlink" width="200" height="200"><defs><style type="text/css"></style></defs><path d="M511.995 8.192C232.059 8.192 5.12 235.116 5.12 515.072c0 279.941 226.939 506.88 506.875 506.88s506.885-226.944 506.885-506.88c-0.005-279.956-226.95-506.88-506.885-506.88z" fill="#4DAFEA" p-id="5348"></path><path d="M772.782 687.309c-24.002 2.278-28.047-32.338-44.216-42.69-6.82 33.592-22.989 57.589-45.988 75.279 21.483 16.41 60.902 21.719 58.875 57.338-2.273 43.203-80.85 54.82-137.708 50.78-41.692-3.04-66.452-18.19-90.204-34.36-13.128 4.803-26.772 17.178-40.924 22.99-58.122 24.002-184.955 14.402-190.008-37.643-3.533-36.88 38.159-43.448 60.64-58.86-23.249-16.67-40.677-38.912-45.977-73.769-16.932 4.562-20.72 41.693-44.221 40.93-25.011-0.748-28.8-52.552-26.281-85.13 3.789-50.023 40.182-88.92 58.875-114.689-1.009-28.293 1.008-53.806 13.133-68.71 0.512-73.006 25.769-115.953 62.162-152.325 36.89-36.88 92.984-64.922 149.079-65.429 66.949-0.757 119.505 31.831 152.355 63.913 29.312 28.8 48.512 59.367 57.35 104.838 2.78 13.64 1.008 30.31 4.802 47.493 1.516 7.07 9.098 14.653 11.377 24.499 3.03 12.63-1.516 28.293 1.515 42.69 2.274 10.865 12.38 18.95 17.936 26.276 16.174 20.716 37.652 54.815 40.934 86.897 4.792 35.374-0.512 87.665-23.506 89.682z" fill="#FFFFFF" p-id="5349"></path></svg>