<?xml version="1.0" standalone="no"?><!DOCTYPE svg PUBLIC "-//W3C//DTD SVG 1.1//EN" "http://www.w3.org/Graphics/SVG/1.1/DTD/svg11.dtd"><svg t="1566619485895" class="icon" viewBox="0 0 1024 1024" version="1.1" xmlns="http://www.w3.org/2000/svg" p-id="3217" xmlns:xlink="http://www.w3.org/1999/xlink" width="200" height="200"><defs><style type="text/css"></style></defs><path d="M329.217355 289.400471c-11.745882-88.094118-12.950588-169.562353-0.602353-242.688 164.382118-108.423529 242.266353 19.184941 367.736471 0 9.878588 76.107294 6.174118 178.597647-5.571765 239.104a227.388235 227.388235 0 0 1-48.850823 104.839529c-33.972706 40.146824-80.323765 65.325176-132.216471 65.325176-51.952941 0-98.906353-25.178353-132.306823-65.325176-23.491765-27.557647-40.146824-62.313412-48.188236-101.255529z m-82.823529 689.091764H789.083708L756.857826 1024H272.957591l-26.563765-45.537882z m571.693176-391.890823l59.934118 220.491294c21.022118 77.281882 11.143529 132.427294-80.956235 132.427294h-20.389647V636.325647h-243.501177l69.842824-155.798588 25.328941-19.154824 137.216 32.948706 6.77647 1.807059 4.336942 5.391059a207.088941 207.088941 0 0 1 40.176941 85.684706l1.234823-0.602353zM262.476649 939.52H225.371708c-91.467294 0-101.345882-55.115294-80.956235-132.427294l59.934118-220.491294c8.041412-36.562824 25.359059-65.325176 50.085647-87.491765l3.70447-3.011765 4.939294-1.204706 132.276706-32.918588 25.931294 19.154824 76.047059 155.798588H262.476649v302.592z" p-id="3218" fill="#FFFFFF"></path></svg>